<!-- <?xml version="1.0" standalone="no"?>
<!DOCTYPE svg PUBLIC "-//W3C//DTD SVG 20010904//EN"
 "http://www.w3.org/TR/2001/REC-SVG-20010904/DTD/svg10.dtd"> -->
<svg version="1.0" xmlns="http://www.w3.org/2000/svg"
 width="793.000000pt" height="611.000000pt" viewBox="0 0 793.000000 611.000000"
 preserveAspectRatio="xMidYMid meet">

<g transform="translate(0.000000,611.000000) scale(0.100000,-0.100000)"
fill="#FFFFFF" stroke="white">
<path d="M3856 5948 c-43 -68 -123 -192 -179 -275 -56 -84 -118 -179 -139
-210 -20 -32 -61 -94 -91 -138 -30 -44 -88 -132 -128 -195 -41 -63 -98 -151
-128 -195 -168 -251 -216 -323 -237 -361 -13 -24 -47 -76 -76 -116 -29 -41
-105 -154 -168 -252 -170 -262 -362 -550 -370 -556 -11 -7 -220 -328 -220
-337 0 -7 -50 -83 -194 -298 -41 -60 -105 -157 -142 -215 -86 -133 -343 -524
-403 -613 -25 -38 -71 -108 -101 -157 -30 -49 -64 -99 -75 -112 -11 -13 -36
-50 -54 -83 -19 -33 -75 -121 -125 -196 -50 -74 -116 -175 -146 -223 -30 -49
-71 -114 -91 -145 -63 -99 -144 -226 -154 -243 -5 -9 -35 -54 -66 -100 -64
-96 -108 -164 -124 -193 -6 -11 -31 -51 -56 -90 -95 -144 -227 -351 -249 -390
-13 -22 -49 -79 -82 -127 -36 -54 -56 -92 -52 -102 6 -15 364 -16 3945 -16
l3938 0 -30 52 c-17 29 -44 71 -60 93 -15 22 -40 62 -54 88 -14 27 -42 70 -61
96 -18 27 -34 52 -34 56 0 4 -17 32 -39 63 -21 32 -54 82 -73 112 -19 30 -62
96 -94 145 -33 50 -74 115 -91 146 -17 30 -53 86 -80 124 -26 38 -59 88 -73
112 -33 57 -174 280 -200 318 -27 39 -178 271 -259 400 -35 55 -75 113 -88
129 -14 17 -29 39 -33 51 -5 12 -39 68 -77 124 -37 57 -89 135 -114 175 -25
39 -68 103 -96 141 -28 39 -129 192 -224 340 -95 149 -217 335 -270 415 -53
80 -104 160 -113 177 -23 46 -166 266 -179 278 -13 11 -46 60 -212 314 -38 59
-97 148 -129 197 -61 91 -306 464 -409 621 -32 48 -72 109 -90 134 -17 26 -50
75 -72 109 -130 205 -203 316 -306 471 -63 96 -133 202 -155 235 -92 144 -228
344 -235 344 -4 0 -41 -55 -83 -122z m262 -2869 c429 -47 797 -239 1021 -534
67 -89 144 -246 172 -355 31 -118 32 -329 1 -442 -50 -182 -128 -320 -264
-463 l-80 -85 93 -163 c51 -89 137 -238 191 -332 54 -93 98 -179 98 -192 0
-25 -24 -53 -46 -53 -22 0 -29 4 -410 246 -193 123 -358 226 -366 229 -9 4
-53 -5 -99 -19 -409 -123 -881 -81 -1249 110 -257 133 -467 348 -560 571 -58
138 -73 214 -73 368 -1 163 19 255 83 392 229 489 853 792 1488 722z"/>
<path d="M3776 2970 c-553 -64 -987 -382 -1097 -805 -27 -102 -29 -279 -5
-378 39 -164 133 -323 268 -453 173 -168 381 -276 653 -340 113 -27 133 -28
345 -28 243 0 322 11 495 69 41 14 83 25 93 25 10 0 146 -81 302 -181 157 -99
289 -183 294 -186 5 -4 7 -2 4 3 -3 5 -69 120 -147 255 -77 136 -141 255 -141
266 0 12 33 52 81 99 150 145 235 283 280 450 30 111 30 287 0 399 -106 397
-492 704 -996 790 -113 19 -325 27 -429 15z m814 -583 c35 -17 40 -69 8 -91
-20 -14 -92 -16 -658 -16 -700 0 -680 -2 -680 60 0 62 -20 60 675 60 481 0
636 -4 655 -13z m20 -386 c16 -31 12 -59 -12 -75 -20 -14 -99 -16 -662 -16
-581 0 -641 2 -658 17 -22 20 -23 56 -2 77 14 14 88 16 669 16 637 0 655 -1
665 -19z m-8 -368 c22 -20 23 -51 1 -75 -15 -17 -49 -18 -664 -18 -575 0 -649
2 -663 16 -21 20 -20 53 1 76 15 17 49 18 661 18 587 0 647 -2 664 -17z"/>
</g>
</svg>
